<mxfile host="65bd71144e">
    <diagram id="Y-Xju1OvVLZZOTUNDlW-" name="Page-1">
        <mxGraphModel dx="585" dy="694" grid="1" gridSize="10" guides="1" tooltips="1" connect="1" arrows="1" fold="1" page="1" pageScale="1" pageWidth="850" pageHeight="1100" math="0" shadow="0">
            <root>
                <mxCell id="0"/>
                <mxCell id="1" parent="0"/>
                <mxCell id="3" value="Accounts" style="rounded=1;whiteSpace=wrap;html=1;align=center;verticalAlign=top;fontColor=#66B2FF;" vertex="1" parent="1">
                    <mxGeometry x="330" y="365" width="120" height="260" as="geometry"/>
                </mxCell>
                <mxCell id="4" value="Invoices" style="rounded=1;whiteSpace=wrap;html=1;align=center;verticalAlign=top;fontColor=#66B2FF;" vertex="1" parent="1">
                    <mxGeometry x="575" y="335" width="120" height="140" as="geometry"/>
                </mxCell>
                <mxCell id="31" style="edgeStyle=orthogonalEdgeStyle;html=1;entryX=1;entryY=0.5;entryDx=0;entryDy=0;fontColor=#66B2FF;" edge="1" parent="1" source="5" target="22">
                    <mxGeometry relative="1" as="geometry"/>
                </mxCell>
                <mxCell id="5" value="Invoice Line Items" style="rounded=1;whiteSpace=wrap;html=1;align=center;verticalAlign=top;fontColor=#66B2FF;" vertex="1" parent="1">
                    <mxGeometry x="330" y="200" width="120" height="140" as="geometry"/>
                </mxCell>
                <mxCell id="6" value="SKUs" style="rounded=1;whiteSpace=wrap;html=1;align=center;verticalAlign=top;fontColor=#66B2FF;" vertex="1" parent="1">
                    <mxGeometry x="110" y="225" width="120" height="200" as="geometry"/>
                </mxCell>
                <mxCell id="7" value="account_id" style="rounded=0;whiteSpace=wrap;html=1;align=left;spacingLeft=4;" vertex="1" parent="1">
                    <mxGeometry x="330" y="395" width="120" height="30" as="geometry"/>
                </mxCell>
                <mxCell id="8" value="company_name" style="rounded=0;whiteSpace=wrap;html=1;align=left;spacingLeft=4;" vertex="1" parent="1">
                    <mxGeometry x="330" y="425" width="120" height="30" as="geometry"/>
                </mxCell>
                <mxCell id="9" value="company_address" style="rounded=0;whiteSpace=wrap;html=1;align=left;spacingLeft=4;" vertex="1" parent="1">
                    <mxGeometry x="330" y="455" width="120" height="30" as="geometry"/>
                </mxCell>
                <mxCell id="10" value="contact_person" style="rounded=0;whiteSpace=wrap;html=1;align=left;spacingLeft=4;" vertex="1" parent="1">
                    <mxGeometry x="330" y="485" width="120" height="30" as="geometry"/>
                </mxCell>
                <mxCell id="11" value="contact_phone" style="rounded=0;whiteSpace=wrap;html=1;align=left;spacingLeft=4;" vertex="1" parent="1">
                    <mxGeometry x="330" y="515" width="120" height="30" as="geometry"/>
                </mxCell>
                <mxCell id="12" value="gender" style="rounded=0;whiteSpace=wrap;html=1;align=left;spacingLeft=4;" vertex="1" parent="1">
                    <mxGeometry x="330" y="545" width="120" height="30" as="geometry"/>
                </mxCell>
                <mxCell id="13" value="joining_date" style="rounded=0;whiteSpace=wrap;html=1;align=left;spacingLeft=4;" vertex="1" parent="1">
                    <mxGeometry x="330" y="575" width="120" height="30" as="geometry"/>
                </mxCell>
                <mxCell id="30" style="edgeStyle=orthogonalEdgeStyle;html=1;entryX=0;entryY=0.5;entryDx=0;entryDy=0;fontColor=#66B2FF;" edge="1" parent="1" source="16" target="19">
                    <mxGeometry relative="1" as="geometry"/>
                </mxCell>
                <mxCell id="16" value="invoice_id" style="rounded=0;whiteSpace=wrap;html=1;align=left;spacingLeft=4;" vertex="1" parent="1">
                    <mxGeometry x="330" y="230" width="120" height="30" as="geometry"/>
                </mxCell>
                <mxCell id="17" value="item_id" style="rounded=0;whiteSpace=wrap;html=1;align=left;spacingLeft=4;" vertex="1" parent="1">
                    <mxGeometry x="330" y="260" width="120" height="30" as="geometry"/>
                </mxCell>
                <mxCell id="18" value="quantity" style="rounded=0;whiteSpace=wrap;html=1;align=left;spacingLeft=4;" vertex="1" parent="1">
                    <mxGeometry x="330" y="290" width="120" height="30" as="geometry"/>
                </mxCell>
                <mxCell id="19" value="invoice_id" style="rounded=0;whiteSpace=wrap;html=1;align=left;spacingLeft=4;" vertex="1" parent="1">
                    <mxGeometry x="575" y="365" width="120" height="30" as="geometry"/>
                </mxCell>
                <mxCell id="28" style="edgeStyle=orthogonalEdgeStyle;html=1;entryX=1;entryY=0.5;entryDx=0;entryDy=0;fontColor=#66B2FF;" edge="1" parent="1" source="20" target="7">
                    <mxGeometry relative="1" as="geometry"/>
                </mxCell>
                <mxCell id="20" value="account_id" style="rounded=0;whiteSpace=wrap;html=1;align=left;spacingLeft=4;" vertex="1" parent="1">
                    <mxGeometry x="575" y="395" width="120" height="30" as="geometry"/>
                </mxCell>
                <mxCell id="21" value="date_issued" style="rounded=0;whiteSpace=wrap;html=1;align=left;spacingLeft=4;" vertex="1" parent="1">
                    <mxGeometry x="575" y="425" width="120" height="30" as="geometry"/>
                </mxCell>
                <mxCell id="22" value="item_id" style="rounded=0;whiteSpace=wrap;html=1;align=left;spacingLeft=4;" vertex="1" parent="1">
                    <mxGeometry x="110" y="255" width="120" height="30" as="geometry"/>
                </mxCell>
                <mxCell id="23" value="item_name" style="rounded=0;whiteSpace=wrap;html=1;align=left;spacingLeft=4;" vertex="1" parent="1">
                    <mxGeometry x="110" y="285" width="120" height="30" as="geometry"/>
                </mxCell>
                <mxCell id="24" value="item_description" style="rounded=0;whiteSpace=wrap;html=1;align=left;spacingLeft=4;" vertex="1" parent="1">
                    <mxGeometry x="110" y="315" width="120" height="30" as="geometry"/>
                </mxCell>
                <mxCell id="25" value="item_cost_price" style="rounded=0;whiteSpace=wrap;html=1;align=left;spacingLeft=4;" vertex="1" parent="1">
                    <mxGeometry x="110" y="345" width="120" height="30" as="geometry"/>
                </mxCell>
                <mxCell id="26" value="item_retail_price" style="rounded=0;whiteSpace=wrap;html=1;align=left;spacingLeft=4;" vertex="1" parent="1">
                    <mxGeometry x="110" y="375" width="120" height="30" as="geometry"/>
                </mxCell>
            </root>
        </mxGraphModel>
    </diagram>
</mxfile>